<?xml version="1.0" encoding="UTF-8"?>
<!DOCTYPE svg PUBLIC "-//W3C//DTD SVG 1.1//EN" "http://www.w3.org/Graphics/SVG/1.1/DTD/svg11.dtd">
<svg xmlns="http://www.w3.org/2000/svg" version="1.1" width="180px" height="180px" style="shape-rendering:geometricPrecision; text-rendering:geometricPrecision; image-rendering:optimizeQuality; fill-rule:evenodd; clip-rule:evenodd" xmlns:xlink="http://www.w3.org/1999/xlink">
<g><path style="opacity:0.994" fill="#e30b17" d="M -0.5,27.5 C 59.5,27.5 119.5,27.5 179.5,27.5C 179.5,68.1667 179.5,108.833 179.5,149.5C 119.5,149.5 59.5,149.5 -0.5,149.5C -0.5,108.833 -0.5,68.1667 -0.5,27.5 Z"/></g>
<g><path style="opacity:1" fill="#f8b3b5" d="M 66.5,59.5 C 66.5,59.8333 66.5,60.1667 66.5,60.5C 60.4406,60.2539 54.4406,60.5872 48.5,61.5C 49.6808,59.9328 51.3474,59.0995 53.5,59C 57.8868,58.2938 62.2201,58.4604 66.5,59.5 Z"/></g>
<g><path style="opacity:1" fill="#ec595d" d="M 66.5,60.5 C 66.5,60.1667 66.5,59.8333 66.5,59.5C 68.698,59.1201 70.3646,59.7868 71.5,61.5C 69.8828,60.962 68.2161,60.6287 66.5,60.5 Z"/></g>
<g><path style="opacity:1" fill="#fef6f6" d="M 66.5,60.5 C 68.2161,60.6287 69.8828,60.962 71.5,61.5C 72.5137,62.6737 73.847,63.3404 75.5,63.5C 75.6716,64.4916 75.3382,65.1583 74.5,65.5C 69.2369,63.8677 64.2369,64.201 59.5,66.5C 58.8333,66.5 58.1667,66.5 57.5,66.5C 55.9731,66.427 54.9731,67.0937 54.5,68.5C 53.8333,68.5 53.5,68.8333 53.5,69.5C 50.1667,70.8333 47.8333,73.1667 46.5,76.5C 45.3127,78.0725 44.3127,79.7392 43.5,81.5C 42.3516,85.9811 42.1849,90.6478 43,95.5C 43.2004,97.3197 44.0337,98.653 45.5,99.5C 47.8271,103.827 51.1605,107.16 55.5,109.5C 56.4293,110.315 57.4293,111.148 58.5,112C 63.1548,112.499 67.8215,112.666 72.5,112.5C 73.791,112.263 74.791,112.596 75.5,113.5C 68.9223,117.899 61.589,119.566 53.5,118.5C 52.0697,117.463 50.403,116.796 48.5,116.5C 43.7019,115.036 39.7019,112.369 36.5,108.5C 36.573,106.973 35.9063,105.973 34.5,105.5C 33.8333,104.167 33.1667,102.833 32.5,101.5C 30.7477,95.3192 30.0811,88.9859 30.5,82.5C 30.767,80.0347 31.4336,77.7014 32.5,75.5C 33.9063,75.0269 34.573,74.0269 34.5,72.5C 37.5,70.1667 40.1667,67.5 42.5,64.5C 42.5,63.8333 42.8333,63.5 43.5,63.5C 45.0269,63.573 46.0269,62.9063 46.5,61.5C 47.1667,61.5 47.8333,61.5 48.5,61.5C 54.4406,60.5872 60.4406,60.2539 66.5,60.5 Z"/></g>
<g><path style="opacity:1" fill="#f1797d" d="M 46.5,61.5 C 46.0269,62.9063 45.0269,63.573 43.5,63.5C 43.9731,62.0937 44.9731,61.427 46.5,61.5 Z"/></g>
<g><path style="opacity:1" fill="#e8383a" d="M 71.5,61.5 C 75.5847,61.3723 78.5847,63.039 80.5,66.5C 78.5887,65.925 76.922,64.925 75.5,63.5C 73.847,63.3404 72.5137,62.6737 71.5,61.5 Z"/></g>
<g><path style="opacity:1" fill="#ed595c" d="M 74.5,65.5 C 75.5,66.1667 76.5,66.8333 77.5,67.5C 71.5362,66.6932 65.5362,66.3599 59.5,66.5C 64.2369,64.201 69.2369,63.8677 74.5,65.5 Z"/></g>
<g><path style="opacity:1" fill="#f7b0b3" d="M 75.5,63.5 C 76.922,64.925 78.5887,65.925 80.5,66.5C 81.347,70.1683 80.347,70.5016 77.5,67.5C 76.5,66.8333 75.5,66.1667 74.5,65.5C 75.3382,65.1583 75.6716,64.4916 75.5,63.5 Z"/></g>
<g><path style="opacity:1" fill="#f2888c" d="M 57.5,66.5 C 57.0269,67.9063 56.0269,68.573 54.5,68.5C 54.9731,67.0937 55.9731,66.427 57.5,66.5 Z"/></g>
<g><path style="opacity:1" fill="#f7a5a8" d="M 42.5,64.5 C 40.1667,67.5 37.5,70.1667 34.5,72.5C 36.1667,68.8333 38.8333,66.1667 42.5,64.5 Z"/></g>
<g><path style="opacity:1" fill="#ef6c70" d="M 53.5,69.5 C 51.5,72.1667 49.1667,74.5 46.5,76.5C 47.8333,73.1667 50.1667,70.8333 53.5,69.5 Z"/></g>
<g><path style="opacity:1" fill="#f3898d" d="M 34.5,72.5 C 34.573,74.0269 33.9063,75.0269 32.5,75.5C 32.427,73.9731 33.0937,72.9731 34.5,72.5 Z"/></g>
<g><path style="opacity:1" fill="#ec6168" d="M 95.5,77.5 C 94.8826,77.3893 94.3826,77.056 94,76.5C 93.8195,79.6946 93.3195,82.6946 92.5,85.5C 92.5,82.1667 92.5,78.8333 92.5,75.5C 94.1788,75.2852 95.1788,75.9519 95.5,77.5 Z"/></g>
<g><path style="opacity:1" fill="#fdedee" d="M 95.5,77.5 C 96.8742,81.1868 99.5408,82.8534 103.5,82.5C 105.179,82.2852 106.179,82.9519 106.5,84.5C 106.5,84.8333 106.5,85.1667 106.5,85.5C 103.808,86.5905 103.142,88.2572 104.5,90.5C 106.063,91.9448 107.396,93.6115 108.5,95.5C 108.158,96.3382 107.492,96.6716 106.5,96.5C 105.292,95.7659 103.959,95.4326 102.5,95.5C 102.083,94.8761 101.416,94.5427 100.5,94.5C 99.2867,94.7472 98.62,95.4138 98.5,96.5C 96.7497,97.6594 95.7497,99.326 95.5,101.5C 93.89,98.7967 92.89,95.7967 92.5,92.5C 91.4863,91.3263 90.153,90.6596 88.5,90.5C 88.1667,90.5 87.8333,90.5 87.5,90.5C 87.3893,89.8826 87.056,89.3826 86.5,89C 88.3146,88.2432 89.9812,87.4098 91.5,86.5C 92.1667,86.5 92.5,86.1667 92.5,85.5C 93.3195,82.6946 93.8195,79.6946 94,76.5C 94.3826,77.056 94.8826,77.3893 95.5,77.5 Z"/></g>
<g><path style="opacity:1" fill="#f7a8ab" d="M 106.5,84.5 C 106.179,82.9519 105.179,82.2852 103.5,82.5C 105.308,80.8947 107.308,80.5613 109.5,81.5C 108.812,82.8549 107.812,83.8549 106.5,84.5 Z"/></g>
<g><path style="opacity:1" fill="#f17577" d="M 106.5,85.5 C 105.833,87.1667 105.167,88.8333 104.5,90.5C 103.142,88.2572 103.808,86.5905 106.5,85.5 Z"/></g>
<g><path style="opacity:1" fill="#f6a2a5" d="M 91.5,86.5 C 89.9812,87.4098 88.3146,88.2432 86.5,89C 87.056,89.3826 87.3893,89.8826 87.5,90.5C 86.0047,90.5852 85.0047,89.9185 84.5,88.5C 86.6079,87.0562 88.9412,86.3896 91.5,86.5 Z"/></g>
<g><path style="opacity:1" fill="#ee656a" d="M 88.5,90.5 C 90.153,90.6596 91.4863,91.3263 92.5,92.5C 90.6203,92.7709 89.287,92.1042 88.5,90.5 Z"/></g>
<g><path style="opacity:1" fill="#f7b0b3" d="M 43.5,81.5 C 43.1004,87.6544 43.7671,93.6544 45.5,99.5C 44.0337,98.653 43.2004,97.3197 43,95.5C 42.1849,90.6478 42.3516,85.9811 43.5,81.5 Z"/></g>
<g><path style="opacity:1" fill="#eb545c" d="M 92.5,92.5 C 92.89,95.7967 93.89,98.7967 95.5,101.5C 94.791,102.404 93.791,102.737 92.5,102.5C 92.5,99.1667 92.5,95.8333 92.5,92.5 Z"/></g>
<g><path style="opacity:1" fill="#f0777d" d="M 102.5,95.5 C 101.041,95.4326 99.7079,95.7659 98.5,96.5C 98.62,95.4138 99.2867,94.7472 100.5,94.5C 101.416,94.5427 102.083,94.8761 102.5,95.5 Z"/></g>
<g><path style="opacity:1" fill="#f27f82" d="M 30.5,82.5 C 30.0811,88.9859 30.7477,95.3192 32.5,101.5C 31.0337,100.653 30.2004,99.3197 30,97.5C 29.1837,92.3158 29.3503,87.3158 30.5,82.5 Z"/></g>
<g><path style="opacity:1" fill="#ef6f76" d="M 108.5,95.5 C 109.885,96.3023 109.718,96.9689 108,97.5C 107.235,97.4301 106.735,97.0967 106.5,96.5C 107.492,96.6716 108.158,96.3382 108.5,95.5 Z"/></g>
<g><path style="opacity:1" fill="#ef6d71" d="M 34.5,105.5 C 35.9063,105.973 36.573,106.973 36.5,108.5C 35.0937,108.027 34.427,107.027 34.5,105.5 Z"/></g>
<g><path style="opacity:1" fill="#f6a7ab" d="M 75.5,113.5 C 74.791,112.596 73.791,112.263 72.5,112.5C 72.5,112.167 72.5,111.833 72.5,111.5C 75.298,110.9 77.9646,109.9 80.5,108.5C 80.8333,108.833 81.1667,109.167 81.5,109.5C 79.736,111.278 77.736,112.611 75.5,113.5 Z"/></g>
<g><path style="opacity:1" fill="#eb4d51" d="M 55.5,109.5 C 60.956,111.12 66.6226,111.787 72.5,111.5C 72.5,111.833 72.5,112.167 72.5,112.5C 67.8215,112.666 63.1548,112.499 58.5,112C 57.4293,111.148 56.4293,110.315 55.5,109.5 Z"/></g>
<g><path style="opacity:1" fill="#ef6b70" d="M 48.5,116.5 C 50.403,116.796 52.0697,117.463 53.5,118.5C 51.302,118.88 49.6354,118.213 48.5,116.5 Z"/></g>
</svg>
